<?xml version="1.0"?>
<svg version="1.1" xmlns="http://www.w3.org/2000/svg" width="210" height="100" style=""><path fill="#" d="M16.19140625,45.234375q0-0.91796875,0.048828125-1.81640625t0.166015625-1.77734375q0.078125-0.44921875,0.693359375-0.64453125t1.025390625-0.1953125l0.46875,0.0390625q0.56640625,0.078125,1.142578125-0.078125t1.142578125-0.15625q1.328125,0,2.96875,0.29296875t3.076171875,0.99609375t2.412109375,1.845703125t0.9765625,2.822265625t-1.015625,3.134765625t-2.55859375,2.55859375t-3.3203125,1.728515625t-3.26171875,0.625q0.15625,3.76953125,0.439453125,7.48046875t0.966796875,7.421875l0.0390625,0.25390625q0,0.2734375-0.244140625,0.44921875t-0.576171875,0.283203125t-0.673828125,0.146484375t-0.556640625,0.0390625q-0.48828125,0-1.181640625-0.185546875t-0.849609375-0.732421875q-0.44921875-1.71875-0.703125-3.779296875t-0.37109375-4.306640625t-0.166015625-4.521484375t-0.048828125-4.443359375l0-4.39453125q0-0.72265625-0.01953125-1.50390625t-0.01953125-1.58203125z M19.8828125,42.0703125q0,2.67578125,0.05859375,5.341796875t0.13671875,5.341796875q1.15234375-0.234375,2.353515625-0.830078125t2.16796875-1.416015625t1.5625-1.865234375t0.595703125-2.197265625q0-1.03515625-0.517578125-1.85546875t-1.337890625-1.40625q-0.80078125-0.56640625-1.81640625-0.87890625q-0.8984375-0.2734375-1.7578125-0.2734375l-0.21484375,0z M34.3099609375,64.84375l0-1.8359375q0-0.99609375,0.048828125-2.822265625t0.126953125-4.00390625t0.21484375-4.541015625t0.3125-4.462890625t0.419921875-3.759765625t0.556640625-2.4609375q0.1953125-0.44921875,0.64453125-0.56640625t0.87890625-0.1171875q0.68359375,0,1.201171875,0.302734375t0.517578125,1.103515625l-0.3515625,0.390625q-0.68359375,4.51171875-0.87890625,9.0625t-0.2734375,9.1015625q0.48828125-0.76171875,1.103515625-1.494140625t1.3671875-1.298828125t1.62109375-0.908203125t1.904296875-0.341796875q1.328125,0,2.197265625,0.80078125t1.435546875,2.080078125t0.83984375,2.861328125t0.419921875,3.1640625t0.205078125,2.998046875t0.17578125,2.353515625q-0.37109375,0.5078125-1.09375,0.5078125l-0.05859375,0q-0.3125,0-0.68359375-0.078125t-0.48828125-0.390625l0.0390625,0.0390625q-0.2734375-0.60546875-0.37109375-1.748046875t-0.15625-2.51953125t-0.205078125-2.822265625t-0.439453125-2.6171875t-0.859375-1.93359375t-1.5234375-0.80078125l-0.1171875,0q-1.15234375,0-1.93359375,0.703125q-0.8203125,0.7421875-1.328125,1.953125t-0.78125,2.6953125t-0.419921875,2.861328125t-0.224609375,2.5t-0.1953125,1.650390625q-0.1171875,0.44921875-0.693359375,0.595703125t-0.986328125,0.146484375q-0.95703125,0-1.5625-0.546875q-0.44921875-1.07421875-0.52734375-2.67578125t-0.078125-3.125z M52.604296875,63.0859375q0-1.11328125,0.283203125-2.294921875t0.8984375-2.12890625t1.552734375-1.54296875t2.265625-0.595703125q0.99609375,0,2.099609375,0.341796875t2.021484375,0.9765625t1.494140625,1.552734375t0.576171875,2.05078125q0,1.3671875-0.498046875,2.59765625t-1.396484375,2.197265625t-2.099609375,1.5234375t-2.607421875,0.556640625q-1.15234375,0-2.01171875-0.419921875t-1.435546875-1.123046875t-0.859375-1.66015625t-0.283203125-2.03125z M55.475390625,63.046875q0,0.3515625,0.107421875,1.03515625t0.322265625,1.337890625t0.556640625,1.1328125t0.830078125,0.439453125q1.03515625-0.1171875,1.708984375-0.673828125t1.09375-1.357421875t0.5859375-1.73828125t0.166015625-1.77734375q0-1.07421875-0.419921875-1.796875t-1.376953125-1.171875q0,0.0390625,0.0390625,0.0390625t0.0390625-0.0390625l-0.48828125-0.1171875q-0.1953125-0.078125-0.478515625-0.17578125t-0.556640625-0.4296875q-0.76171875,0.2734375-1.181640625,0.703125t-0.634765625,1.044921875t-0.263671875,1.474609375t-0.048828125,2.0703125z M66.6017578125,50.3125q0-0.2734375,0.5859375-0.46875t1.328125-0.322265625t1.435546875-0.185546875t0.947265625-0.09765625q0-0.52734375,0.0390625-1.064453125t0.21484375-0.95703125t0.556640625-0.673828125t1.064453125-0.25390625q0.56640625,0,0.859375,0.13671875t0.625,0.56640625q0.078125,0.234375,0.078125,0.44921875l0,0.654296875t-0.0390625,0.673828125q0.72265625-0.078125,1.435546875-0.185546875t1.435546875-0.107421875q0.52734375,0,0.72265625,0.01953125t0.390625,0.46875q0.15625,0.44921875-0.380859375,0.68359375t-1.2890625,0.3515625t-1.494140625,0.17578125t-0.8984375,0.05859375q-0.234375,3.359375-0.478515625,6.66015625t-0.244140625,6.69921875q0,1.5234375,0.09765625,3.14453125t0.546875,3.06640625q0.1171875,0.44921875,0.390625,0.83984375t0.2734375,0.83984375q0,0.2734375-0.21484375,0.4296875t-0.517578125,0.263671875t-0.60546875,0.126953125t-0.498046875,0.01953125q-1.23046875,0-1.875-0.91796875t-0.927734375-2.197265625t-0.302734375-2.626953125t-0.01953125-2.1875q0-1.71875,0.068359375-3.515625t0.166015625-3.5546875t0.2734375-3.4375t0.41015625-3.125q-0.68359375,0.078125-1.337890625,0.17578125t-1.337890625,0.09765625q-0.15625,0-0.419921875-0.01953125t-0.498046875-0.09765625t-0.400390625-0.21484375t-0.166015625-0.390625z M81.14609375,63.0859375q0-1.11328125,0.283203125-2.294921875t0.8984375-2.12890625t1.552734375-1.54296875t2.265625-0.595703125q0.99609375,0,2.099609375,0.341796875t2.021484375,0.9765625t1.494140625,1.552734375t0.576171875,2.05078125q0,1.3671875-0.498046875,2.59765625t-1.396484375,2.197265625t-2.099609375,1.5234375t-2.607421875,0.556640625q-1.15234375,0-2.01171875-0.419921875t-1.435546875-1.123046875t-0.859375-1.66015625t-0.283203125-2.03125z M84.0171875,63.046875q0,0.3515625,0.107421875,1.03515625t0.322265625,1.337890625t0.556640625,1.1328125t0.830078125,0.439453125q1.03515625-0.1171875,1.708984375-0.673828125t1.09375-1.357421875t0.5859375-1.73828125t0.166015625-1.77734375q0-1.07421875-0.419921875-1.796875t-1.376953125-1.171875q0,0.0390625,0.0390625,0.0390625t0.0390625-0.0390625l-0.48828125-0.1171875q-0.1953125-0.078125-0.478515625-0.17578125t-0.556640625-0.4296875q-0.76171875,0.2734375-1.181640625,0.703125t-0.634765625,1.044921875t-0.263671875,1.474609375t-0.048828125,2.0703125z M103.555078125,40.44921875q0-0.390625,0.60546875-0.556640625t0.99609375-0.166015625q0.44921875,0,0.986328125,0.1171875t0.654296875,0.60546875q0.56640625,2.28515625,0.869140625,4.658203125t0.458984375,4.775390625t0.25390625,4.775390625t0.21484375,4.697265625q0.52734375-2.32421875,1.083984375-4.619140625t1.455078125-4.580078125l0-1.5625q0-0.99609375,0.693359375-1.435546875t1.865234375-0.439453125q0.1171875,0,0.537109375,0.05859375t0.419921875,0.390625q-0.078125,0.234375-0.185546875,0.44921875t-0.107421875,0.46875q0,2.96875,0.703125,6.083984375t1.38671875,6.064453125q0.390625-2.51953125,0.8984375-5.01953125t1.0546875-4.98046875q0.72265625-3.3203125,1.103515625-5.517578125t0.72265625-3.4765625t0.7421875-1.81640625t1.123046875-0.537109375q0.44921875-0.0390625,0.83984375,0.15625t0.3125,0.64453125q-1.40625,6.796875-2.626953125,13.6328125t-2.490234375,13.671875q0,0.390625,0.13671875,0.91796875t0.13671875,0.9375q0,0.234375-0.21484375,0.390625t-0.517578125,0.263671875t-0.6640625,0.146484375t-0.634765625,0.0390625q-0.60546875,0-1.26953125-0.185546875t-0.859375-1.064453125q-0.68359375-3.046875-1.259765625-6.123046875t-1.064453125-6.201171875q-0.15625,0.72265625-0.29296875,1.46484375t-0.25390625,1.50390625q-0.56640625,3.3203125-1.25,6.640625t-0.68359375,6.71875q0,0.83984375-0.3515625,1.083984375t-1.19140625,0.244140625q-0.64453125,0-1.09375-0.21484375q-0.3515625-0.1953125-0.6640625-0.3515625q-0.2734375-0.15625-0.498046875-0.361328125t-0.224609375-0.400390625q-0.3125-4.23828125-0.439453125-8.41796875t-0.283203125-8.41796875q-0.15625-3.80859375-0.458984375-7.607421875t-0.673828125-7.548828125z M127.2791015625,62.24609375q0-1.796875,0.419921875-3.525390625t0.712890625-3.447265625q0.078125-0.44921875,0.615234375-0.556640625t0.908203125-0.107421875q0.64453125,0,1.03515625,0.1953125q0.15625,0.078125,0.29296875,0.17578125t0.13671875,0.25390625q0,1.6796875-0.400390625,3.28125t-0.400390625,3.3984375q0,0.60546875,0.087890625,1.142578125t0.166015625,1.064453125l0.1171875,0.56640625q0,0.15625,0.01953125,0.2734375t0.05859375,0.2734375q0,0.3515625-0.498046875,0.478515625t-0.869140625,0.126953125q-0.56640625,0-1.044921875-0.224609375t-0.751953125-0.771484375l-0.2734375-0.56640625q-0.234375-0.44921875-0.234375-1.005859375t-0.09765625-1.025390625z M128.5291015625,50.48828125l0-0.37109375q0-0.91796875,0.458984375-1.640625t1.376953125-0.72265625q0.1171875,0,0.224609375,0.01953125t0.224609375,0.01953125q0.234375,0.0390625,0.615234375,0.185546875t0.380859375,0.458984375l0,0.0390625q-0.078125,0.15625-0.09765625,0.322265625t-0.09765625,0.283203125l0.0390625-0.0390625q-0.234375,0.60546875-0.380859375,0.9765625t-0.322265625,0.595703125t-0.439453125,0.322265625t-0.751953125,0.09765625q-0.078125,0-0.2734375-0.01953125t-0.419921875-0.078125t-0.380859375-0.15625t-0.15625-0.29296875z M135.8078125,62.48046875q0-1.5234375,0.322265625-2.763671875t1.025390625-2.099609375t1.845703125-1.337890625t2.783203125-0.478515625q0.91796875,0,1.875,0.244140625t1.640625,0.908203125q0-0.390625,0.078125-1.611328125t0.1953125-2.841796875t0.244140625-3.3984375t0.224609375-3.30078125t0.17578125-2.55859375t0.1171875-1.171875q0.1953125-0.56640625,0.72265625-0.673828125t0.99609375-0.107421875q1.23046875,0,1.513671875,0.390625t0.283203125,1.5625q0,4.27734375-0.380859375,8.515625t-0.380859375,8.515625q0,2.75390625,0.107421875,5.537109375t0.771484375,5.478515625l0.21484375,0.1953125l0.1171875,0.3515625l-0.29296875,0.44921875q-0.7421875,0.46875-1.71875,0.46875l-0.078125,0q-0.99609375,0-1.8359375-0.46875q-0.3125-0.1953125-0.517578125-1.162109375t-0.322265625-2.12890625t-0.17578125-2.236328125t-0.09765625-1.5234375q-0.68359375,1.5625-1.865234375,2.685546875t-2.978515625,1.123046875q-1.40625,0-2.3046875-0.60546875t-1.396484375-1.54296875t-0.703125-2.099609375t-0.205078125-2.314453125z M138.17109375,62.59765625q0,0.44921875,0.107421875,1.328125t0.341796875,1.7578125t0.654296875,1.5625t1.103515625,0.68359375q0.91796875-0.44921875,1.66015625-1.494140625t1.279296875-2.3046875t0.83984375-2.51953125t0.302734375-2.177734375q0-1.15234375-0.83984375-1.9140625t-2.01171875-0.76171875q-0.3515625,0-0.712890625,0.13671875t-0.673828125,0.3125q-0.72265625,0.68359375-1.123046875,1.240234375t-0.60546875,1.15234375t-0.263671875,1.318359375t-0.05859375,1.6796875z M154.2974609375,62.03125q0-1.07421875,0.205078125-2.294921875t0.703125-2.236328125t1.376953125-1.6796875t2.24609375-0.6640625q0.91796875,0,1.77734375,0.302734375t1.62109375,0.830078125q0.234375-0.390625,0.7421875-0.478515625t0.8984375-0.087890625q0.15625,0,0.439453125,0.01953125t0.556640625,0.1171875t0.478515625,0.234375t0.244140625,0.390625q0.15625,1.3671875,0.21484375,2.724609375t0.17578125,2.705078125q0.1953125,2.51953125,0.60546875,4.98046875t0.41015625,4.98046875q0,1.19140625-0.107421875,2.578125t-0.56640625,2.568359375t-1.337890625,1.962890625t-2.44140625,0.78125q-1.40625,0-2.158203125-0.498046875t-1.357421875-1.669921875q0.0390625-0.390625,0.498046875-0.517578125t0.791015625-0.126953125q0.3125,0,0.634765625,0.05859375t0.517578125,0.1953125l0.48828125,0.3125q0.72265625-1.484375,0.87890625-3.2421875t0.15625-3.3984375q0-1.3671875-0.13671875-2.705078125t-0.2734375-2.685546875q-1.3671875,2.48046875-4.16015625,2.48046875q-1.2890625,0-2.099609375-0.546875t-1.25-1.38671875t-0.60546875-1.89453125t-0.166015625-2.109375z M156.6998046875,62.20703125q0,0.48828125,0.0390625,1.259765625t0.205078125,1.513671875t0.478515625,1.279296875t0.87890625,0.537109375q1.07421875,0,1.69921875-0.83984375t0.986328125-2.001953125t0.576171875-2.40234375t0.546875-2.041015625q-0.0390625-0.2734375-0.0390625-0.537109375l0-0.537109375q-0.44921875-0.83984375-1.30859375-1.455078125t-1.77734375-0.830078125q-0.1171875-0.01953125-0.21484375-0.01953125q-0.546875,0-0.8984375,0.64453125q-0.44921875,0.78125-0.703125,1.865234375t-0.361328125,2.138671875t-0.107421875,1.42578125z M170.990234375,63.515625q0-1.3671875,0.302734375-3.22265625t1.025390625-3.515625t1.904296875-2.822265625t2.978515625-1.162109375q1.6796875,0,2.51953125,0.966796875t0.83984375,2.607421875q0,1.07421875-0.400390625,2.353515625t-1.142578125,2.421875t-1.7578125,1.904296875t-2.265625,0.76171875l-0.5078125-0.0390625q0,0.52734375,0.15625,1.416015625t0.458984375,1.767578125t0.78125,1.54296875t1.162109375,0.6640625q0.99609375,0,1.9140625-0.80078125t1.73828125-1.77734375t1.5234375-1.77734375t1.2890625-0.80078125q0.3125,0,0.64453125,0.09765625t0.37109375,0.546875q0,0.2734375-0.146484375,0.44921875t-0.263671875,0.390625q-0.60546875,1.03515625-1.318359375,1.97265625t-1.611328125,1.69921875t-1.962890625,1.201171875t-2.353515625,0.439453125q-1.6796875,0-2.79296875-0.595703125t-1.796875-1.6015625t-0.986328125-2.32421875t-0.302734375-2.763671875z M174.486328125,62.03125l0.546875,0.48828125q0.390625,0.3515625,0.78125,0.15625t0.703125-0.712890625t0.576171875-1.279296875t0.46875-1.5625t0.302734375-1.5625t0.09765625-1.26953125l0-0.6640625t-0.05859375-0.703125t-0.205078125-0.556640625t-0.458984375-0.283203125q-0.09765625-0.01953125-0.17578125-0.01953125q-0.6640625,0-1.1328125,0.83984375q-0.5078125,0.9375-0.8203125,2.275390625t-0.44921875,2.744140625t-0.17578125,2.109375z M186.5111328125,50.3125q0-0.2734375,0.5859375-0.46875t1.328125-0.322265625t1.435546875-0.185546875t0.947265625-0.09765625q0-0.52734375,0.0390625-1.064453125t0.21484375-0.95703125t0.556640625-0.673828125t1.064453125-0.25390625q0.56640625,0,0.859375,0.13671875t0.625,0.56640625q0.078125,0.234375,0.078125,0.44921875l0,0.654296875t-0.0390625,0.673828125q0.72265625-0.078125,1.435546875-0.185546875t1.435546875-0.107421875q0.52734375,0,0.72265625,0.01953125t0.390625,0.46875q0.15625,0.44921875-0.380859375,0.68359375t-1.2890625,0.3515625t-1.494140625,0.17578125t-0.8984375,0.05859375q-0.234375,3.359375-0.478515625,6.66015625t-0.244140625,6.69921875q0,1.5234375,0.09765625,3.14453125t0.546875,3.06640625q0.1171875,0.44921875,0.390625,0.83984375t0.2734375,0.83984375q0,0.2734375-0.21484375,0.4296875t-0.517578125,0.263671875t-0.60546875,0.126953125t-0.498046875,0.01953125q-1.23046875,0-1.875-0.91796875t-0.927734375-2.197265625t-0.302734375-2.626953125t-0.01953125-2.1875q0-1.71875,0.068359375-3.515625t0.166015625-3.5546875t0.2734375-3.4375t0.41015625-3.125q-0.68359375,0.078125-1.337890625,0.17578125t-1.337890625,0.09765625q-0.15625,0-0.419921875-0.01953125t-0.498046875-0.09765625t-0.400390625-0.21484375t-0.166015625-0.390625z"/><path fill="#" d=""/></svg>
